<?xml version="1.0" encoding="UTF-8"?><svg id="Layer_2" xmlns="http://www.w3.org/2000/svg" viewBox="0 0 92.2194 46.1084"><g id="Layer_1-2"><polygon points="72.4075 0 67.3729 0 67.3729 27.5738 63.7834 26.8069 63.7834 0 57.2188 0 57.2188 25.4123 53.7829 24.6855 53.7829 0 45.4739 0 45.4739 22.9193 42.7819 22.3385 42.7819 0 32.4991 0 32.4991 20.153 30.3247 19.6918 30.3247 0 18.7306 0 18.7306 17.233 19.8079 17.4602 19.8079 46.1084 24.8417 46.1084 24.8417 18.538 28.4322 19.2964 28.4322 46.1084 34.9879 46.1084 34.9879 20.6868 38.4279 21.423 38.4279 46.1084 46.7421 46.1084 46.7421 23.1883 49.44 23.7648 49.44 46.1084 59.7156 46.1084 59.7156 25.9426 61.8895 26.4158 61.8895 46.1084 73.485 46.1084 73.485 28.872 72.4075 28.6431 72.4075 0"/><path d="M0,7.2202v38.8883h1.7457V11.692c.98,1.0283,2.3132,1.8191,3.8518,2.4306v31.9858h2.6228V14.963c.4445.1154.8904.2289,1.3473.3152l2.6223.5748v30.2555h3.7334v-29.4724l.9352.1921V0h-5.3332C3.3172,0,0,3.1156,0,7.2202Z"/><path d="M90.4656,0v34.4199c-.9788-1.024-2.3098-1.8157-3.847-2.4349V0h-2.6254v31.1395c-.4441-.1136-.8882-.2195-1.337-.3168l-2.6399-.5611V0h-3.7172v29.4716l-.9361-.199v16.8359h5.3234c8.2202,0,11.5331-3.1241,11.5331-7.2168V0h-1.7538Z"/></g></svg>